<svg width="262" height="39" viewBox="0 0 262 39" fill="none" xmlns="http://www.w3.org/2000/svg">
<g clip-path="url(#clip0_1_7)">
<path d="M29.222 4.32024H5.29991C4.61999 4.33207 3.94399 4.22978 3.31053 4.01923C2.67705 3.80868 2.09855 3.49398 1.60803 3.09312C1.11751 2.69224 0.724611 2.21307 0.451764 1.68294C0.178917 1.15283 0.0314727 0.582162 0.0178528 0.00354004H34.5041C34.4904 0.582162 34.343 1.15283 34.0702 1.68294C33.7973 2.21307 33.4044 2.69224 32.9139 3.09312C32.4234 3.49398 31.8449 3.80868 31.2114 4.01923C30.5779 4.22978 29.902 4.33207 29.222 4.32024ZM13.987 38.1331V15.4055C13.987 11.8986 16.3442 8.54036 20.535 6.05881V38.1331H13.987Z" fill="#E52529"/>
<path d="M76.3066 0.00354004C76.3066 2.02444 73.9406 3.66642 71.0682 3.66642H44.7626V34.4183H70.9546C73.9144 34.4183 76.3066 36.0826 76.3066 38.1331H39.4107V0.00354004H76.3066ZM70.8761 18.5112H59.9104C55.1457 18.5308 50.5474 17.0213 47.0325 14.2836H70.8761V18.5112Z" fill="#E52529"/>
<path d="M102.909 34.1805C104.666 34.1898 106.408 33.9019 108.034 33.3335C109.54 32.824 110.914 32.0665 112.076 31.1046L112.522 30.6884C113.448 29.7948 114.589 29.0809 115.868 28.595C117.147 28.1093 118.533 27.8629 119.934 27.8726H120.03C119.687 29.3652 118.998 30.7846 118.003 32.0478C117.007 33.3108 115.726 34.3921 114.233 35.2281C110.92 37.2264 106.942 38.2679 102.883 38.2H86.1112L80.4275 34.1805H102.909ZM94.7458 4.10472C93.477 4.09351 92.2166 4.27984 91.0266 4.65452C89.9269 4.99674 88.9201 5.52496 88.0668 6.20734C86.1719 7.6765 83.689 8.47386 81.126 8.43627H80.4275C81.1208 5.94458 82.9114 3.77441 85.4302 2.37357C88.1647 0.768633 91.4248 -0.0608056 94.7458 0.00347282H114.39L120.065 4.10472H94.7458ZM113.272 17.7087C117.027 19.6057 119.279 22.1541 120.03 25.3539H114.154C113.75 24.1571 112.989 23.0694 111.945 22.1963C110.787 21.2197 109.401 20.4604 107.877 19.9673C106.235 19.4244 104.487 19.1496 102.726 19.1575H94.868C91.3836 19.2068 87.968 18.3289 85.0984 16.6462C82.7425 15.3281 81.0707 13.291 80.4275 10.955H86.3033C86.9375 12.259 88.0733 13.3409 89.5249 14.0234C91.139 14.8184 92.9771 15.2244 94.8418 15.1973H102.7C106.437 15.1353 110.113 16.0085 113.272 17.7087Z" fill="#E52529"/>
<path d="M130.105 0.00354004V21.8843C130.105 25.2202 127.879 28.4151 123.933 30.8V0.00354004H130.105ZM160.837 38.1331H123.924C123.884 36.9067 124.418 35.7169 125.408 34.8253C126.399 33.9337 127.765 33.4131 129.206 33.3781H160.828L160.837 38.1331Z" fill="#E52529"/>
<path d="M186.689 0.00354004C187.65 1.71956 188.149 3.5967 188.149 5.49787C188.149 7.39902 187.65 9.27617 186.689 10.9922L171.846 38.1331H165.901L186.689 0.00354004ZM193.132 15.3832L205.443 38.1331H199.209L194.634 29.7227H179.084C180.394 27.3675 183.659 25.8147 187.309 25.8147H192.469L186.898 15.4129L193.132 15.3832Z" fill="#E52529"/>
<path d="M221.777 0.00354004H228.911L261.964 38.1331H254.954L221.777 0.00354004ZM221.865 38.1331L237.143 20.5395C238.22 21.6901 238.812 23.1141 238.826 24.5847C238.841 26.0551 238.276 27.4873 237.222 28.6528L228.998 38.1331H221.865ZM261.982 0.00354004L247.236 17.0104C246.212 15.8752 245.658 14.4846 245.658 13.054C245.658 11.6234 246.212 10.2327 247.236 9.0976L255.19 0.00354004H261.982Z" fill="#1D1D1B"/>
</g>
<defs>
<clipPath id="clip0_1_7">
<rect width="261.964" height="38.2031" fill="white" transform="translate(0.0178528)"/>
</clipPath>
</defs>
</svg>
